# xmcd
#
# Track frame offsets: 
#        150
#        13110
#        21758
#        34418
#        43129
#        51923
#        60209
#        68063
#        73064
#        78572
#        85117
#        101959
#        110196
#        118531
#
# Disc length: 1709 seconds
#
# Revision: 0
# Processed by: cddbd v1.5.2PL0 Copyright (c) Steve Scherf et al.
# Submitted via: ExactAudioCopy v1.0b3
#
DISCID=c306ab0e
DTITLE=Uroš Dojčinović - Južno-američka gitara
DYEAR=1983
DGENRE=Classical Guitar
TTITLE0=Desde el Alma (vals Argentino) 
TTITLE1=Cuando Llora Mi Guitarra (vals Peruano) 
TTITLE2=Scherzino Mexicano
TTITLE3=El Sonido de los Carillanos (toada) 
TTITLE4=Uno (tango Argentino) 
TTITLE5=Vurgenes del Sol (danca Inca)
TTITLE6=Estilo popular Argentino 
TTITLE7=Valz Venezolano No. 2
TTITLE8=El Marabino (vals Venezolano)
TTITLE9=Cantico (canciona Venezolana)
TTITLE10=Melgar (vals Peruano)
TTITLE11=Lima Criolla (danza Criolla)
TTITLE12=Nube Gris (vals Peruano)
TTITLE13=Sonrisas (polka Peruana)
EXTD=
EXTT0=
EXTT1=
EXTT2=
EXTT3=
EXTT4=
EXTT5=
EXTT6=
EXTT7=
EXTT8=
EXTT9=
EXTT10=
EXTT11=
EXTT12=
EXTT13=
PLAYORDER=
